<svg version="1" xmlns="http://www.w3.org/2000/svg" width="2233.333" height="2233.333" viewBox="0 0 1675.000000 1675.000000"><path d="M775 .7C722.5 4.4 680 11.8 641.5 24c-97.8 31-161.8 92.1-192.4 183.5-6 18.1-11.1 39.3-15.4 64l-2.2 13v1137l2.8 13.2c5.8 27.8 13 49 24.7 72.8 21.5 43.6 52.9 77.7 96.1 104.5 36.5 22.7 78.8 38.5 133.9 50 17.5 3.7 43.5 7.3 72.5 10.2 18.9 1.9 28.2 2.2 66 2.3 46.3 0 61.5-1 102-6.5 102-14 176.4-43.9 229-91.9 41.6-38 68.4-87.1 82-150.3l2.5-11.8V697.2l-2.6-7.8c-7.5-22.6-22.6-43.6-47.7-66.2-24.9-22.5-35-29.7-54.9-39.1-28.8-13.7-60.2-21.7-106.4-27.2-15.5-1.9-25.2-2.2-72.2-2.6-56.6-.5-72.8.1-97.7 3.7-24.3 3.5-45.2 9.5-59.3 17.1-8.2 4.4-18 11.6-21.1 15.5l-2.1 2.7v-269l3.7-7.4c2-4 5.5-9.2 7.9-11.5 5-5 13.8-9.7 21.2-11.3 6.4-1.3 48.5-1.5 56.2-.2 7.1 1.2 15.2 4.3 20.1 7.7 4.6 3.2 9.7 10.4 10.3 14.8.3 1.7.9 40.4 1.3 86.1l.8 83 171.3.3 171.3.2-.3-102.7c-.3-100.1-.4-103.2-2.5-116.8-8.6-54.5-23.1-94.7-47.4-131-47.2-70.6-126.3-112.9-241.6-129-34.4-4.9-50.6-5.7-111.8-6C807.1.4 778 .4 775 .7zm272.5 866.2c5.2 2.4 17.5 14.8 20.8 21l2.7 4.8.3 59.2c.2 32.5.1 59.1-.2 59.1-.5 0-74.9 14.1-143.9 27.2l-6.4 1.2-5.5 10.9-5.4 10.9-1 60.2c-.8 50.4-1.3 61-2.6 65.9-1 3.4-2.4 6.2-3.5 6.8-1.1.6-8.9.9-18.6.7l-16.7-.3-9.2 3.7c-13.9 5.6-39.1 18.3-44.8 22.6l-5 3.8-.3 134-.2 134.1-6 4.7-6 4.7-14.7 1.5c-8.2.7-15.5 1.4-16.3 1.4-.8 0-2.5 1.6-3.8 3.5l-2.2 3.5h-43l-2.2-3.5c-2.6-3.9-7.9-6.5-13.3-6.5-3.5 0-3.5 0-3.5-4.4 0-2.4-.3-5.8-.6-7.5-.6-2.8-1-3.1-4.5-3.1H688v-5.8c.1-5.5.3-5.9 6-12.6l6-7V944.1l-2.2-2.1c-1.2-1.1-3.7-3-5.5-4.3l-3.3-2.2v-18.4l5.3-.3 5.2-.3.3-9.7c.3-9.4.4-9.8 3.1-11.7 1.6-1.2 9.8-4.3 18.4-7.1l15.4-5h69.8l1.3 5.2c3.5 15 14.9 25.9 31.8 30.2 5.5 1.4 7.2 1.4 16.5.1 39-5.5 89.5-22.1 131.3-43.3 10.8-5.4 14.8-6.9 22.6-8.3 13.4-2.4 32.2-2.4 37.5 0z"/><path d="M875 1062c0 1.3 3.3 5.2 8.5 10.1 9.6 9.3 12.5 14.2 12.5 21.7v5.2h-3.7c-2.3 0-4.5-.7-5.9-2.1-1.2-1.1-5.5-3.2-9.5-4.7-6.8-2.5-8.6-2.7-22.4-2.6-17.4 0-18.3.3-29.2 8.8-10.3 8.1-10.8 9.8-10.8 41.1 0 38.3 1.3 40.6 25 43.4 12.4 1.5 35.8 1.3 42.5-.3 9.3-2.2 14.7-5.9 16.8-11.6.6-1.4 1.3-17 1.7-34.5.7-32.5-.4-57.4-2.7-61.9-4.2-8.2-12.7-14.5-19.5-14.6-2.7 0-3.3.4-3.3 2z"/></svg>