<svg version="1" xmlns="http://www.w3.org/2000/svg" width="960" height="960" viewBox="0 0 720.000000 720.000000"><path d="M336.5 30.7C256.9 35.6 213 69.7 201.9 135c-1.9 11.2-1.9 17.3-1.7 235l.3 223.5 2.8 9.5c3.1 10.5 9.8 25.4 14.8 32.7 4.3 6.4 15.1 17.5 21.9 22.7 23.4 18 55.7 27.8 101.1 30.7 33.2 2.2 71.1-2.7 100.3-12.8 41.8-14.5 66.9-41.2 76.6-81.3 1.9-8.3 2-11.2 2-149.5v-141l-2.4-5.7c-3.4-8.2-8.6-14.8-19.8-24.8-19.9-17.9-41-24.3-84.2-25.7-38.3-1.2-63.3 3.2-73.8 13l-2.8 2.6V157.3l2.3-3.4c1.2-1.8 3.8-4.4 5.6-5.6 3.1-2.1 4.5-2.3 16.3-2.3 10.9 0 13.5.3 16.8 2 2.2 1.1 4.4 2.9 5 4 .6 1.2 1.3 15.2 1.7 36l.6 34 67.1-.2 67.1-.3v-41c0-35.9-.2-42.3-1.9-51-5-26.7-14.4-45.3-31.2-61.6-22.9-22.2-54.8-33.6-102.9-36.9-13.9-.9-35.2-1.1-47-.3zm108.1 343.8c4.3 10.5 5.4 13.6 4.2 12.9-.7-.4-3.8-2.4-6.9-4.5l-5.7-3.8-3.9 3.4-4 3.4-9.1-1.5c-6.9-1.2-10.3-1.3-13.9-.6-6.6 1.4-7.6.3-1.8-2 3.9-1.5 5-1.6 5.6-.6.7 1 .9.9.9-.3 0-.9 1.1-2.1 2.5-2.7 3.8-1.8 4.1-1.5 1.5 1.3-2.6 2.8-2.5 2.9 1.7 1.5 1.7-.6 3.6-2.2 4.4-3.6.8-1.6 1.9-2.4 3-2.1 1.2.3 1.5-.1 1.2-1.3-.6-2.2 1.3-2.7 11.5-2.9l7.3-.1 1.5 3.5zm-118.5 8.2c-8.3 21-10.3 25.9-11 26.6-.4.4-1.4-2.4-2.1-6.3l-1.3-7.1 4.3-9c4.4-8.9 4.4-8.9 8.2-8.9h3.8l-1.9 4.7zm85.2 5.2c.5 2.5 1.2 2.9 5 3.5 3.9.6 4.8.4 7.2-1.9 4.3-3.9 4.2-4 6 6.7.4 2.6.2 3.8-.6 3.8-.6 0-3.7 1.2-6.9 2.6-4.5 2-5.7 3-5.3 4.4.3 1 1.6 2.1 2.9 2.4 2.4.6 2.4.7.7 3.2l-1.6 2.6 3.8-1.6c2-.9 3.8-1.6 4-1.6.1 0 .2-.6.2-1.4 0-.8.8-3.5 1.7-6.1 1.5-3.8 2.6-5 6.9-7.3 7.4-3.9 7.6-3.8 3.8.2l-3.5 3.6h3.5c2 0 3.9.3 4.3.7.3.4-2.4 3.8-6.1 7.6l-6.8 6.8 5-2.1c3.5-1.5 6.3-2 9.3-1.7 4 .4 4.4.3 5.7-2.7l1.4-3.1-.2 4-.2 4-5.5.8c-3 .4-9.3 1.4-14 2.2-4.6.8-8.6 1.3-8.8 1.1-.1-.2 3.7-3.3 8.7-7 4.9-3.7 9.5-7.4 10.2-8.3.8-.9-3.8 2.2-10.1 6.9-9.2 6.9-11.5 9-11.2 10.8.1 1.3-.7 3-2 4.1l-2.3 2 3.3-.6c2.7-.6 3.3-.3 4.2 1.7l.9 2.3.7-2.3c.4-1.6 2.9-3.4 7.6-5.8 3.9-1.9 7.2-3.3 7.5-3 .3.3-.2 2.6-1.2 5.1-1.9 5.2-1.8 5.7 1.2 4.9 1.8-.5 2-1.1 1.5-5.2l-.5-4.7 2.7 3.2c1.5 1.8 3.6 3.5 4.6 3.8 3.4 1.1 2.2 2.2-3.2 2.9-2.9.4-6.2.9-7.3 1.2-1.1.2-11.8 2.3-23.9 4.7l-21.8 4.2-2.1 4c-1.9 3.6-2.1 6.3-2.6 29.5-.3 14-1 26.1-1.5 26.9-.7 1-2.3 1.2-6.8.7-5.1-.5-7-.2-13.6 2.4-4.2 1.7-10.1 4.4-12.9 6l-5.3 3v35l-2.6-1c-1.4-.6-2.8-1-3-1-.3 0 .8 2.4 2.5 5.4 3.7 6.4 4 8.8.8 5.8l-2.3-2.2-7 2.7c-3.8 1.4-7.1 2.7-7.2 2.9-.2.1-.1 1.7.3 3.4.6 2.8 1 3.1 3.8 2.8 2.7-.2 3.3-.8 3.7-3.3.4-2.2 1.1-3.1 2.8-3.3 2.7-.4 2.7 0 .5 6-1.2 3.3-2.3 4.8-3.5 4.8-1.9 0-2.2 1.1-1.1 4.8.5 2.2.9 2.3 6.4 1.7l5.8-.7V615h-2.3c-4.3 0-8.6-1.2-8.4-2.4.1-.6-.1-3.5-.5-6.4-.9-6.1-3-7.8-5.7-4.4-1.6 1.9-1.9 2-3 .7-1.9-2.3-2.7-1.8-2.2 1.5.3 2.4 1.7 4 6.3 7.1 3.3 2.2 5.9 4.5 5.9 5.2 0 .7.3 2.2.6 3.3.5 2 .2 2.2-3.1 2.2-2 0-4.2.5-4.8 1.1-.8.8-2.1-.5-4.9-4.7l-3.8-5.7.6 6.2c.6 5.3.4 6.4-1 6.9-.9.4-1.9.4-2.1.2-.3-.3-.2-6.1.3-13 .7-11.6.6-12.5-1-12-1.3.3-2.2-.5-3.3-2.9l-1.4-3.4-.1 3.3c0 2.5-.5 3.5-2 3.9-2.1.5-2.8 2.3-1 2.3 1.4 0 2.7 3.2 4.4 10.8 1.4 6 1.4 6.3-.6 7.3-3.3 1.8-9.8-.7-9.8-3.8 0-1.6-.6-2.3-2-2.3-2.8 0-2.6-3.4.5-7.4l2.5-3.3v-52.1l2.5-.6c1.4-.4 2.5-1.1 2.5-1.7 0-.7-1.1-.9-2.5-.7l-2.5.5v-13.3c0-12.5.1-13.4 2.1-14.4 3-1.6 3.2-.8 1.6 4.7l-1.5 4.9 4.7 6.3 4.6 6.2.3-8 .3-8 9.6-3.2c9.7-3.2 10.4-3.7 16.6-11.5 1.7-2.2 1.6-2.3-1.4-5.4-1.7-1.7-3.9-2.9-4.8-2.7-.9.2-4.4-1.7-7.9-4.1-5.6-4-6.6-4.3-8.8-3.3-3.4 1.5-3.3 1.5-2.2-2.3.9-2.7.7-4.3-.6-7.5-.9-2.3-1.6-4.3-1.6-4.5 0-.2 1.4-.6 3.1-1l3.1-.6-.7-8.7c-.4-4.9-.9-9.7-1.2-10.7-.5-1.6-.1-1.8 2.3-1.3 1.6.3 8.5 1.5 15.4 2.7l12.5 2.2-.3 10.2c-.5 13.8.8 17.2 7.1 18.1 2.5.4 8.7.5 13.7.4 13.2-.6 13-.2 13-22.8 0-15.8-.2-17.9-2-20.9-2.1-3.5-5.9-5.6-7.4-4.1-.6.5.7 2.4 3.2 4.7 3.2 3 4.2 4.6 4.2 7 0 3.7-.5 3.8-5.1 1.4-2.3-1.2-5.7-1.7-10.9-1.7-6.7 0-7.9.3-11.2 2.9l-3.8 2.8-10.7-5.7c-6-3.2-11.2-6.1-11.7-6.5-1.6-1.5 4.8-4.5 10.9-5l6-.5-10.2-5.3c-5.7-2.9-10.3-5.6-10.3-6 0-.5 1.2-1.4 2.7-2.1 2.5-1.1 2.9-.9 7.5 3.6 5.3 5.2 6.1 5.1 2.3-.5-3.3-4.9-3.2-6.5 1-8.5 3.4-1.6 3.5-1.6 3.5.3 0 1.8.7 2 6.6 2 4.8 0 7 .4 7.8 1.5.9 1.2 1.8 1.3 5.1.3 3.8-1.1 3.9-1.2 1.5-1.9-1.4-.4-1.9-.7-1.2-.8.8-.1-.9-2.6-3.7-5.7-4.9-5.5-5-5.8-3.6-8.5 2.1-3.9 2-4.3-2.2-10.7l-3.6-5.7-1 3c-.5 1.6-1.1 3.2-1.4 3.4-.2.3-2.1-1.2-4.2-3.3l-3.8-3.7 4.6-4.4c4.8-4.6 6.1-4.4 6.1.7 0 2.6.3 2.8 3.9 2.8 2.2 0 4.3-.5 4.6-1 .3-.6 1.3-1 2.2-1 1.3 0 1.5 1.1 1.1 7.5l-.5 7.4 5.9-5c5.8-5.1 6-5.7 2.9-9.2-2-2.4-2.2-4.4-.4-5.1 2.4-.9 3.3.2 3.3 4.2v3.6l6-5.9c5.5-5.5 6.1-5.8 8.5-4.7 1.4.7 3.7 1.2 5 1.2 1.3 0 2.7.4 3 1 .3.5-.2 1-1.2 1-1.5 0-1.5.2-.3 1 .9.6 1.4 2.4 1.3 5.2l-.2 4.3.8-3.9c.5-2.2 1.5-4.4 2.3-5 .7-.6 1.2-1.9 1-2.9-.4-2.2 3-2.3 5.2-.1 1 .9 2.4 1.3 3.7.9 1.9-.6 1.9-.8.3-1.9-1.4-1-1.4-1.6-.5-3.5 1.5-2.7 2.7-2.1 3.4 1.8zm40.7 10.5c0 4-.3 4.5-3.6 6.1-2 .9-3.8 1.4-4.1 1.2-.4-.5 6.6-11.7 7.3-11.7.2 0 .4 2 .4 4.4zm-140.7 9.1c.9 1.7.8 1.8-.5.7-.9-.7-2.3-1-3.2-.6-1.3.5-1.6 0-1.6-2.6 0-3.3 0-3.3 2.1-1.4 1.1 1 2.6 2.8 3.2 3.9zm20.7 10.6c11.9 2.8 13 3.2 11.2 4.5-1.1.8-5.3 2.1-9.4 3l-7.3 1.5-4.7-5.3c-4.8-5.3-5.6-6.8-3.9-6.8.5 0 6.8 1.4 14.1 3.1zm-21.4 28.6c1.3 1.7 2.4 3.4 2.4 3.6 0 .3-1.6.7-3.5.9l-3.5.4.1-8.1c.1-7.5.2-7.7 1.1-4 .6 2.2 2.1 5.4 3.4 7.2zm20.2 2c-1 .2-2.8.2-4 0-1.3-.2-.5-.4 1.7-.4 2.2-.1 3.2.1 2.3.4zm-16.8 4.6c0 .2-1.8 1.8-4 3.6l-4 3.2v-3.6c0-3.4.1-3.5 4-3.5 2.2 0 4 .1 4 .3zm1 24.5l1.6 5.7-5.1 6.8-5 6.8-.3-6.7c-.2-3.8.2-7.2.8-7.8.5-.5 1-1.5 1-2.1 0-.5-.5-.3-1 .5-.7 1.1-1 .2-1-3.1 0-4.3.2-4.7 3.3-5.6 1.7-.5 3.4-.8 3.7-.6.3.3 1.2 3 2 6.1zm7.5 33.4c-9.6 8.5-8.7 8.2-12.8 4-2.1-2.1-3.7-4.8-3.7-6 0-2.1.3-2.2 10.6-2.2h10.7l-4.8 4.2zm3.2 11.4c-.3.3-1.2.4-1.9.1-.8-.3-.5-.6.6-.6 1.1-.1 1.7.2 1.3.5z"/><path d="M385 392c0 2 .7 3.8 1.7 4.5 1.6 1.2 1.3 1.4-2.2 2-10.5 1.9-10.9 2-12.8 5.3-1.1 1.8-1.6 3.8-1.3 4.5 3.1 5.8 7.6 11.7 9 11.7 2.8 0 4.8-2.5 4.1-5.3-.6-2.2-1.3-2.7-4-2.7-2.8 0-4.5-1.3-4.5-3.6 0-.6 8.6-.5 10.4.2.9.3 1.6 1.2 1.6 2s.4 1.4 1 1.4c1.6 0 6-2.3 6-3.1 0-.9-7.9-19.1-8.6-19.8-.2-.2-.4 1.1-.4 2.9zM403.4 399.6c-4.8 2-5.8 3.7-4 7.1 1.1 2 1.5 2.3 1.6 1 0-1.6.2-1.6 2.4-.2l2.3 1.6.6-5.3c.2-2.9.4-5.3.3-5.4 0-.1-1.5.5-3.2 1.2zM371.7 426.7c-2.8 1.4-2.8 1.4-1 4.2 4.9 7.5 4.3 7.2 11.1 5.9 3.4-.6 6.2-1.4 6.2-1.7 0-.5-8.6-6.9-12.4-9.3-.6-.3-2.4 0-3.9.9zM365.6 435.9c-1.7 1.9-1.7 2 2.6 4.2 2.3 1.2 5.4 2.9 6.8 3.8l2.5 1.6-2.2-3c-1.2-1.7-3.4-4.2-5-5.8-2.9-2.7-3-2.7-4.7-.8zM327.1 472.6c.2.5 1.3 3.3 2.3 6.2 1.9 5 2.1 5.2 5.7 5.2 2.1 0 4-.4 4.3-.8.3-.5-1.8-2.9-4.7-5.4-5.8-4.9-8.2-6.5-7.6-5.2zM320.6 542.7c.6 6.1 2 10.1 3.1 8.9.2-.2-.1-2.5-.8-5-1.1-4.5-1.1-4.8 1.7-7.7l2.8-2.9h-7.5l.7 6.7zM312 558.6v7.6l3.8-3c6.1-4.9 8.7-8.1 7.1-8.7-4-1.4-10.2-3.5-10.5-3.5-.2 0-.4 3.4-.4 7.6zM338 583c-1.4.5-1.9.8-1.1.9 1.1.1.9.7-.7 2.4l-2.2 2.3 3.8 1.3c2 .8 4.3 1.6 5.1 1.9 1.1.4 1.2-.3.7-3.4-.9-4.9-2.4-6.3-5.6-5.4zM306 616.8c0 2.5 2.7 4.2 6.7 4.2 3 0 3.1.1-3.9-4.5-2.7-1.7-2.8-1.7-2.8.3z"/></svg>