<svg id="Layer_1" data-name="Layer 1" xmlns="http://www.w3.org/2000/svg" viewBox="0 0 811.8 1674.85"><title>6siege</title><path d="M994.2,643.2c-41.4-43.4-118.3-65.2-233.6-63.8-92.2-2-151.5,11-173.6,40.8V350.9c7.3-23.6,24.8-36.8,58.7-33.2,34.9-3,56.4,4.4,62.5,24.3l1.3,168.5h342V324.2C1036.9,104.9,884.1,26.3,654.6,25.5,372.9,19.2,258,136,239.8,324.2h.1v1113c23,171,154.3,263.7,414.8,262.9,206.8-10.3,365.1-71.5,396.9-265.5V726.2C1045.9,697.2,1026.6,669.6,994.2,643.2ZM881.3,1036.4l-151.5,28.7L719,1086.8l-2.1,122.8-3.6,9.3c0,4.4-29.1-.4-37,1.9-17.5,5.1-61.9,26.5-59.3,31.9-.2,58.6,0,265.5,0,265.5l-12.1,9.6-32.5,3.2-4.5,7H524.5l-4.5-7-7-3.2-7.7-.6v-8.3l-1.3-6.4-8.3.6V1501l12.1-14V968.8L497,960.5V942h10.8V922.2l7.7-5.1,30.6-9.6h70.2c1.3,32.5,38.3,37,38.3,37,75.1-7.4,155.7-51.7,155.7-51.7s38.6-8.3,49.1,0,23.9,23.6,21.7,32.5S881.4,1036.3,881.3,1036.4Z" transform="translate(-239.8 -25.26)"/><path d="M706.9,1101.7c-.1-.4-3.9-8.2-9.6-12.4s-13.3-4.9-13.4-2.2c-.2,4.3,14.7,12.4,19.6,22.2,3.3,6.5,1.9,16.7,1.8,16.4-.8-1.9-6.9.6-8-1-3.7-5.7-19.7-9.5-24.2-9.6-18.5-.5-27.3-1.3-35.7,6.7-4.4,4.2-10,5.3-11.5,11.2-3.2,12.2-5.9,64.9,4.8,70.2-.8,4.2,46.9,8.2,62.8,3.5,20.5-5.9,13.5-21.7,14.7-26.8C708,1179.4,710.5,1123.5,706.9,1101.7Z" transform="translate(-239.8 -25.26)"/></svg>